# xmcd
#
# Track frame offsets: 
#        183
#        18340
#        34363
#        54203
#        75405
#        102980
#        125945
#        152945
#        174353
#        190600
#        210890
#        214750
#        233408
#        255458
#        276620
#        294128
#
# Disc length: 4161 seconds
#
# Revision: 2
# Processed by: cddbd v1.5.2PL0 Copyright (c) Steve Scherf et al.
# Submitted via: ExactAudioCopy v0.95b4
#
DISCID=d3103f10
DTITLE=Donna Summer - Happily Ever After
DYEAR=1977
DGENRE=Disco
TTITLE0=Once Upon A Time
TTITLE1=Faster And Faster To Nowhere
TTITLE2=Fairy Tale High
TTITLE3=Say Something Nice
TTITLE4=Now I Need You
TTITLE5=Working The Midnight Shift
TTITLE6=Queen For A Day
TTITLE7=If You Got It Flaunt It
TTITLE8=A Man Like You
TTITLE9=Sweet Romance
TTITLE10=(Theme) Once Upon A Time
TTITLE11=Dance Into My Life
TTITLE12=Rumour Has It
TTITLE13=I Love You
TTITLE14=Happily Ever After
TTITLE15=(Theme) Once Upon A Time
EXTD=
EXTT0=
EXTT1=
EXTT2=
EXTT3=
EXTT4=
EXTT5=
EXTT6=
EXTT7=
EXTT8=
EXTT9=
EXTT10=
EXTT11=
EXTT12=
EXTT13=
EXTT14=
EXTT15=
PLAYORDER=
